HIERARCHY
ROOT Hips
{
	OFFSET -0.001795 -0.223333 0.028219
	CHANNELS 6 Xposition Yposition Zposition Zrotation Yrotation Xrotation 
	JOINT LeftUpLeg
	{
		OFFSET 0.069520 -0.091406 -0.006815
		CHANNELS 3 Zrotation Yrotation Xrotation
		JOINT LeftLeg
		{
			OFFSET 0.034277 -0.375199 -0.004496
			CHANNELS 3 Zrotation Yrotation Xrotation
			JOINT LeftFoot
			{
				OFFSET -0.013596 -0.397961 -0.043693
				CHANNELS 3 Zrotation Yrotation Xrotation
				JOINT LeftToe
				{
					OFFSET 0.026358 -0.055791 0.119288
					CHANNELS 3 Zrotation Yrotation Xrotation
					End Site
					{
						OFFSET 0.000000 0.000000 0.000000
					}
				}
			}
		}
	}
	JOINT RightUpLeg
	{
		OFFSET -0.067670 -0.090522 -0.004320
		CHANNELS 3 Zrotation Yrotation Xrotation
		JOINT RightLeg
		{
			OFFSET -0.038290 -0.382569 -0.008850
			CHANNELS 3 Zrotation Yrotation Xrotation
			JOINT RightFoot
			{
				OFFSET 0.015774 -0.398415 -0.042312
				CHANNELS 3 Zrotation Yrotation Xrotation
				JOINT RightToe
				{
					OFFSET -0.025372 -0.048144 0.123348
					CHANNELS 3 Zrotation Yrotation Xrotation
					End Site
					{
						OFFSET 0.000000 0.000000 0.000000
					}
				}
			}
		}
	}
	JOINT Spine
	{
		OFFSET -0.002533 0.108963 -0.026696
		CHANNELS 3 Zrotation Yrotation Xrotation
		JOINT Spine1
		{
			OFFSET 0.005487 0.135180 0.001092
			CHANNELS 3 Zrotation Yrotation Xrotation
			JOINT Spine2
			{
				OFFSET 0.001457 0.052922 0.025425
				CHANNELS 3 Zrotation Yrotation Xrotation
				JOINT Neck
				{
					OFFSET -0.002778 0.213870 -0.042857
					CHANNELS 3 Zrotation Yrotation Xrotation
					JOINT Head
					{
						OFFSET 0.005152 0.064970 0.051349
						CHANNELS 3 Zrotation Yrotation Xrotation
						End Site
						{
							OFFSET 0.000000 0.000000 0.000000
						}
					}
				}
				JOINT LeftShoulder
				{
					OFFSET 0.078845 0.121749 -0.034090
					CHANNELS 3 Zrotation Yrotation Xrotation
					JOINT LeftArm
					{
						OFFSET 0.090977 0.030469 -0.008868
						CHANNELS 3 Zrotation Yrotation Xrotation
						JOINT LeftForeArm
						{
							OFFSET 0.259612 -0.012772 -0.027456
							CHANNELS 3 Zrotation Yrotation Xrotation
							JOINT LeftHand
							{
								OFFSET 0.249234 0.008986 -0.001171
								CHANNELS 3 Zrotation Yrotation Xrotation
								End Site
								{
									OFFSET 0.000000 0.000000 0.000000
								}
							}
						}
					}
				}
				JOINT RightShoulder
				{
					OFFSET -0.081759 0.118833 -0.038615
					CHANNELS 3 Zrotation Yrotation Xrotation
					JOINT RightArm
					{
						OFFSET -0.096012 0.032551 -0.009143
						CHANNELS 3 Zrotation Yrotation Xrotation
						JOINT RightForeArm
						{
							OFFSET -0.253742 -0.013329 -0.021401
							CHANNELS 3 Zrotation Yrotation Xrotation
							JOINT RightHand
							{
								OFFSET -0.255298 0.007772 -0.005559
								CHANNELS 3 Zrotation Yrotation Xrotation
								End Site
								{
									OFFSET 0.000000 0.000000 0.000000
								}
							}
						}
					}
				}
			}
		}
	}
}
MOTION
Frames: 10
Frame Time: 0.050000
-0.250669 0.939143 2.843569 -0.211878 -12.421554 -4.933347 -2.784972 -2.084957 -21.064620 3.064456 -0.800085 9.141833 -3.801903 -1.502946 16.617921 0.000000 0.000000 0.000000 0.184917 -0.953161 13.149327 -3.401428 5.630804 41.394776 4.797944 4.067062 10.215614 0.000000 0.000000 0.000000 3.708867 -0.168768 3.002343 -3.669892 1.722915 -1.240045 1.540435 17.738032 9.922213 8.905740 -2.343615 -20.424402 0.000000 0.000000 0.000000 -17.244988 5.787792 -6.818751 -45.127591 15.924566 -10.983723 -113.066736 -50.535412 69.953730 0.000000 0.000000 0.000000 9.540099 -3.503963 -1.173203 59.547125 10.219115 -0.395242 107.899235 58.659537 86.319390 0.000000 0.000000 0.000000 
-0.250955 0.926390 2.924354 0.665964 -12.928160 -7.189124 -4.227574 -2.030736 -17.032400 1.225660 -0.445764 15.668613 -1.372066 0.192060 9.489564 0.000000 0.000000 0.000000 -0.897501 -0.488772 7.692391 -1.590524 7.154182 53.058431 1.774002 -0.463458 7.646083 0.000000 0.000000 0.000000 3.228510 -0.268810 5.179912 -2.792601 1.322613 -0.667700 -1.091965 15.309267 9.579865 8.167169 -1.948435 -21.950379 0.000000 0.000000 0.000000 -18.931223 3.187906 -5.458352 -45.643113 13.397667 -10.217510 -103.518590 -56.314008 68.598980 0.000000 0.000000 0.000000 13.026882 -2.852195 -1.119361 57.549920 6.427594 -2.854878 103.986944 56.153453 77.579875 0.000000 0.000000 0.000000 
-0.251394 0.923214 2.993352 0.704555 -13.234619 -8.744629 -5.210973 -1.797932 -13.087512 0.088655 -0.006791 20.711631 0.487612 1.640754 2.049831 0.000000 0.000000 0.000000 0.140208 -0.114845 1.513711 -1.107920 7.659099 56.002914 -2.271711 -6.051228 0.953650 0.000000 0.000000 0.000000 3.053313 -0.356772 7.297610 -2.943282 1.368898 -1.266147 -1.697803 11.759213 10.616162 7.581357 -2.063444 -22.334375 0.000000 0.000000 0.000000 -21.880989 0.586585 -3.703492 -44.027953 7.324580 -7.885264 -92.579055 -62.082226 66.496352 0.000000 0.000000 0.000000 16.558067 -2.773463 -1.788271 54.659217 1.292010 -5.501097 93.644967 54.361714 63.111057 0.000000 0.000000 0.000000 
-0.252061 0.935495 3.052950 0.189300 -13.834741 -9.128245 -5.900009 -1.255448 -7.884489 0.328403 -0.112509 18.039413 0.531520 2.032034 3.299293 0.000000 0.000000 0.000000 2.075176 0.550081 -5.072939 -2.196841 7.268962 50.189344 -4.039109 -7.794689 -4.607461 0.000000 0.000000 0.000000 3.317500 -0.410361 8.378667 -2.234514 1.012118 -1.524525 -2.168775 8.121994 10.857178 5.781688 -1.680617 -21.364249 0.000000 0.000000 0.000000 -22.128904 -0.743637 -1.858540 -45.863634 2.021316 -6.690073 -79.544936 -64.646733 59.206628 0.000000 0.000000 0.000000 16.843445 -3.604585 -3.014486 51.922895 -5.391353 -8.009561 83.100918 51.952804 49.552234 0.000000 0.000000 0.000000 
-0.253405 0.949581 3.106274 -0.664097 -13.817127 -8.922640 -6.607105 -0.679674 -3.433878 2.489750 -0.753655 14.996828 0.076054 1.481794 4.737020 0.000000 0.000000 0.000000 4.083919 1.133697 -8.678451 -4.611283 5.860083 37.700451 -2.421272 -2.990951 -4.897462 0.000000 0.000000 0.000000 4.087811 -0.445763 8.346217 -1.478467 0.651439 -1.439520 -2.309073 3.958465 10.904447 4.319364 -1.475656 -20.395707 0.000000 0.000000 0.000000 -22.416730 0.178743 -1.216188 -47.359447 -2.664055 -5.493240 -72.659745 -65.852574 56.233858 0.000000 0.000000 0.000000 15.778058 -5.063261 -4.380563 49.238154 -11.825455 -9.991884 72.253986 48.162770 36.668355 0.000000 0.000000 0.000000 
-0.255955 0.956348 3.155818 -1.080778 -13.062770 -8.404750 -7.074458 -0.122111 0.148308 3.851749 -1.096406 13.261465 -0.135158 0.743242 3.432905 0.000000 0.000000 0.000000 4.387314 1.385486 -10.178189 -4.574888 3.222406 23.647817 1.065974 4.013748 -1.547879 0.000000 0.000000 0.000000 4.902372 -0.480784 8.152116 -1.069242 0.473865 -0.899759 -2.674914 1.225804 10.039326 3.564953 -1.383803 -19.366772 0.000000 0.000000 0.000000 -20.880000 -0.500749 -0.185347 -48.914707 -5.231453 -4.687885 -70.708247 -66.430774 56.029666 0.000000 0.000000 0.000000 15.890570 -6.857995 -5.699798 46.525034 -17.105392 -11.195596 62.915476 46.198520 28.949803 0.000000 0.000000 0.000000 
-0.260001 0.955090 3.201918 -1.137038 -12.232256 -8.021034 -6.585905 0.253318 2.375718 3.327980 -1.008303 14.081001 0.720547 1.730688 0.466986 0.000000 0.000000 0.000000 4.603264 1.261760 -9.290596 -3.471813 1.867371 16.251086 3.211129 6.132314 2.426729 0.000000 0.000000 0.000000 5.280673 -0.499321 8.000727 -1.162438 0.502553 -1.876945 -3.125587 -0.572350 10.346757 3.622962 -1.665433 -18.590133 0.000000 0.000000 0.000000 -20.877256 -0.569683 0.234397 -48.594634 -6.120944 -4.429045 -74.167228 -66.197622 59.397985 0.000000 0.000000 0.000000 16.276086 -8.431824 -6.814996 44.250218 -20.658950 -11.802251 57.274220 44.964568 24.871918 0.000000 0.000000 0.000000 
-0.264819 0.952568 3.243764 -1.289912 -11.162000 -7.485579 -6.534520 0.418072 3.308309 2.963081 -0.989897 16.261698 0.791864 1.448250 -1.018510 0.000000 0.000000 0.000000 5.149657 1.120644 -8.163840 -3.452280 1.726429 15.276138 3.429385 4.304796 5.443206 0.000000 0.000000 0.000000 5.962609 -0.518784 7.652858 -2.191872 1.023089 -1.114612 -2.554057 -1.502152 8.626512 3.593562 -1.667412 -18.226430 0.000000 0.000000 0.000000 -20.719722 -0.989544 0.488632 -48.765775 -6.498826 -4.137479 -66.704742 -63.896919 51.026699 0.000000 0.000000 0.000000 16.518542 -9.505319 -7.493970 44.174733 -22.086692 -12.150016 51.026037 44.513014 21.539815 0.000000 0.000000 0.000000 
-0.269310 0.951149 3.279642 -1.713035 -9.370455 -6.992734 -5.601904 0.344941 2.868919 2.149685 -0.896673 20.254255 0.898266 1.287605 -2.081490 0.000000 0.000000 0.000000 5.524193 0.857919 -6.309935 -3.553024 1.701337 15.194951 2.455359 3.184723 4.047877 0.000000 0.000000 0.000000 6.182554 -0.507401 7.100640 -1.653072 0.772485 -1.110102 -2.986501 -1.822910 8.629932 3.163529 -1.351074 -17.968021 0.000000 0.000000 0.000000 -20.461910 -0.751608 0.172319 -49.189999 -5.703944 -4.416253 -56.458164 -60.857476 40.490002 0.000000 0.000000 0.000000 18.480983 -9.244454 -7.799774 44.812902 -20.716593 -11.774011 42.903134 44.340801 18.011785 0.000000 0.000000 0.000000 
-0.272481 0.952882 3.309068 -2.458264 -8.697809 -5.116139 -3.295134 0.036825 0.593366 0.805867 -0.524163 24.296217 0.572248 0.211487 -2.870990 0.000000 0.000000 0.000000 5.432448 0.652238 -5.127047 -2.397620 1.293292 13.932233 1.799039 2.404440 2.993307 0.000000 0.000000 0.000000 6.759995 -0.470197 5.924147 -1.186970 0.562591 -0.374300 -3.088227 -0.399455 6.886635 3.618036 -1.409466 -17.346637 0.000000 0.000000 0.000000 -20.785104 -0.194848 -0.721498 -48.880001 -2.230465 -5.465512 -47.176754 -56.756890 30.625647 0.000000 0.000000 0.000000 18.444555 -7.543234 -6.550343 47.867086 -16.940088 -11.135784 33.583669 43.461758 14.057201 0.000000 0.000000 0.000000 
